<svg width="16" height="20" viewBox="0 0 16 20" fill="none" xmlns="http://www.w3.org/2000/svg">
<rect x="4.03857" y="4.67102" width="4.46381" height="12.1657" fill="#25E614"/>
<path d="M6.16431 0L11.5028 5.24648H0.825861L6.16431 0Z" fill="#25E614"/>
<path d="M9.81668 9.20605H6.26221V9.75518H9.81668V9.20605Z" fill="#FFE819"/>
<path d="M9.81668 13.6008H6.26221V14.15H9.81668V13.6008Z" fill="#FFE819"/>
<path d="M11.7941 18.2279H2.82959V19.2951H11.7941V18.2279Z" fill="#FFE819"/>
<path d="M6.19727 9.37033V16.0082H6.71342V9.37033H6.19727Z" fill="#FFE819"/>
<path d="M13.8442 11.2896H12.9053V11.9043H13.8442V11.2896Z" fill="#FFE819"/>
<path d="M13.8445 17.444H12.8232V18.0587H13.8445V17.444Z" fill="#FFE819"/>
<path d="M12.9074 12.0735H11.75V12.5415H12.9074V12.0735Z" fill="#FFE819"/>
<path d="M12.8214 18.2279H11.6641V18.6959H12.8214V18.2279Z" fill="#FFE819"/>
<path d="M6.27956 10.3606H2.82959V11.8785H6.27956V10.3606Z" fill="#FFE819"/>
<path d="M12.9056 12.1436V11.358H13.8445V8.36194H12.4702V6.8717H2.82959V18.3101H12.8217V17.5244H13.8445V13.7047H11.7482V12.1436H12.9056ZM9.81503 16.0031H6.26056V13.7548H9.81503V16.0031ZM9.81503 11.5997H6.26056V9.3514H9.81503V11.5997Z" fill="white"/>
<rect x="14.5063" y="10.8481" width="0.731772" height="1.17733" fill="#25E614"/>
<path d="M14.8553 10.5095L15.7304 11.0172H13.9801L14.8553 10.5095Z" fill="#25E614"/>
<rect x="14.6094" y="15.5192" width="0.622006" height="1.25582" fill="#25E614"/>
<path d="M14.9053 15.1581L15.6492 15.6997H14.1615L14.9053 15.1581Z" fill="#25E614"/>
<rect x="13.2939" y="5.84058" width="0.731772" height="1.33431" fill="#25E614"/>
<path d="M13.6424 5.45691L14.5175 6.03233H12.7672L13.6424 5.45691Z" fill="#25E614"/>
</svg>
