<svg width="333" height="58" viewBox="0 0 333 58" fill="none" xmlns="http://www.w3.org/2000/svg">
<path d="M145.514 14.7354H132.163V16.8128H145.514V14.7354Z" fill="#8528FF"/>
<path d="M145.514 31.3617H132.163V33.4392H145.514V31.3617Z" fill="#8528FF"/>
<path d="M282.87 14.1343H257.593V16.8781H282.87V14.1343Z" fill="#8528FF"/>
<path d="M268.988 31.1787H249.255V33.9226H268.988V31.1787Z" fill="#8528FF"/>
<path d="M249.297 25.5277H243.337V28.2715H249.297V25.5277Z" fill="#8528FF"/>
<path d="M282.87 41.9189H277.499V44.6628H282.87V41.9189Z" fill="#8528FF"/>
<path d="M152.949 48.5564H119.275V52.5938H152.949V48.5564Z" fill="#8528FF"/>
<path d="M199.695 48.5564H165.248V52.7114H199.695V48.5564Z" fill="#8528FF"/>
<path d="M277.499 48.478H243.337V52.633H277.499V48.478Z" fill="#8528FF"/>
<path d="M178.077 5.38009V50.3268H180.016V5.38009H178.077Z" fill="#8528FF"/>
<path d="M132.228 14.7354V39.848H134.167V14.7354H132.228Z" fill="#8528FF"/>
<path d="M257.504 14.3629V23.4371H259.443V14.3629H257.504Z" fill="#8528FF"/>
<path d="M301.747 14.7353V23.8096H303.685V14.7353H301.747Z" fill="#8528FF"/>
<path d="M160.651 22.307H157.124V24.6327H160.651V22.307Z" fill="#8528FF"/>
<path d="M160.645 45.5905H156.809V47.9162H160.645V45.5905Z" fill="#8528FF"/>
<path d="M157.124 25.2729H152.776V27.0434H157.124V25.2729Z" fill="#8528FF"/>
<path d="M156.809 48.5564H152.461V50.3268H156.809V48.5564Z" fill="#8528FF"/>
<path d="M178.207 5.37354H165.248V48.5563H178.207V5.37354Z" fill="white"/>
<path d="M199.695 39.7761H165.248V48.5564H199.695V39.7761Z" fill="white"/>
<path d="M277.85 5.354H249.255V14.1343H277.85V5.354Z" fill="white"/>
<path d="M132.234 18.7922H119.275V24.5347H132.234V18.7922Z" fill="#8528FF"/>
<path d="M157.124 25.2272V22.2547H160.651V10.92H155.489V5.2821H119.275V48.5564H156.809V45.5839H160.651V31.133H152.777V25.2272H157.124ZM145.515 39.8284H132.163V31.3225H145.515V39.8284ZM145.515 23.1693H132.163V14.6634H145.515V23.1693Z" fill="white"/>
<path d="M257.504 10.8612H243.337V25.5277H257.504V10.8612Z" fill="white"/>
<path d="M282.863 31.1787H268.697V41.8993H282.863V31.1787Z" fill="white"/>
<path d="M282.863 10.8417H276.583V14.1343H282.863V10.8417Z" fill="white"/>
<path d="M277.499 23.4371H249.296V31.1787H277.499V23.4371Z" fill="white"/>
<path d="M277.499 39.7565H243.337V48.5368H277.499V39.7565Z" fill="white"/>
<path d="M327.023 14.1343H301.747V16.8781H327.023V14.1343Z" fill="#8528FF"/>
<path d="M313.142 31.1787H293.408V33.9226H313.142V31.1787Z" fill="#8528FF"/>
<path d="M293.45 25.5277H287.491V28.2715H293.45V25.5277Z" fill="#8528FF"/>
<path d="M327.023 41.9189H321.652V44.6628H327.023V41.9189Z" fill="#8528FF"/>
<path d="M321.653 48.478H287.491V52.633H321.653V48.478Z" fill="#8528FF"/>
<path d="M322.003 5.354H293.408V14.1343H322.003V5.354Z" fill="white"/>
<path d="M301.657 10.8612H287.491V25.5277H301.657V10.8612Z" fill="white"/>
<path d="M327.017 31.1787H312.85V41.8993H327.017V31.1787Z" fill="white"/>
<path d="M327.017 10.8417H320.736V14.1343H327.017V10.8417Z" fill="white"/>
<path d="M321.652 23.4371H293.45V31.1787H321.652V23.4371Z" fill="white"/>
<path d="M321.653 39.7565H287.491V48.5368H321.653V39.7565Z" fill="white"/>
<path d="M238.722 31.3748H221.457V34.1186H238.722V31.3748Z" fill="#8528FF"/>
<path d="M238.681 48.5369H204.233V52.6918H238.681V48.5369Z" fill="#8528FF"/>
<path d="M217.193 5.35397V50.3007H219.132V5.35397H217.193Z" fill="#8528FF"/>
<path d="M217.193 5.354H204.233V48.5368H217.193V5.354Z" fill="white"/>
<path d="M238.681 39.7565H204.233V48.5368H238.681V39.7565Z" fill="white"/>
<path d="M238.681 23.4698H221.457V31.3747H238.681V23.4698Z" fill="white"/>
<path d="M238.722 5.354H221.457V14.0755H238.722V5.354Z" fill="white"/>
<path d="M238.722 14.0754H221.457V16.8193H238.722V14.0754Z" fill="#8528FF"/>
<path d="M102.42 44.4864V49.3403H114.642V44.4864H102.42Z" fill="white"/>
<path d="M114.642 48.6414H102.42V51.1761H114.642V48.6414Z" fill="#8528FF"/>
<path d="M113.095 49.1967H103.942V51.0389H113.095V49.1967Z" fill="#8528FF"/>
<path d="M113.381 51.0389H103.479V52.6852H113.381V51.0389Z" fill="#8528FF"/>
<path d="M102.42 44.4799H114.642V42.6506H102.42V44.4799Z" fill="white"/>
<path d="M103.966 44.0813H113.119V42.7551H103.966V44.0813Z" fill="white"/>
<path d="M103.686 42.7551H113.589V41.5661H103.686V42.7551Z" fill="white"/>
<path d="M114.642 48.6414H102.42V49.3338H114.642V48.6414Z" fill="#8528FF"/>
<path d="M95.0513 8.40487V28.0233H95.759V8.40487H95.0513Z" fill="white"/>
<path d="M73.123 14.082V25.8544H75.0619V14.082H73.123Z" fill="#8528FF"/>
<path d="M73.123 14.3042V26.0765H75.0619V14.3042H73.123Z" fill="#8528FF"/>
<path d="M73.1173 48.6675H60.1758V52.6134H73.1173V48.6675Z" fill="#8528FF"/>
<path d="M97.7635 48.6675H84.8755V52.6134H97.7635V48.6675Z" fill="#8528FF"/>
<path d="M67.9429 14.2976V27.2133H70.411V14.2976H67.9429Z" fill="white"/>
<path d="M70.4053 10.1361V15.5193L87.4921 15.5193V10.1361H70.4053Z" fill="#8528FF"/>
<path d="M71.1606 31.0481V32.5964H75.8115V31.0481H71.1606Z" fill="#8528FF"/>
<path d="M67.9429 32.6813V48.674H70.411V32.6813H67.9429Z" fill="#8528FF"/>
<path d="M86.6714 31.0546V32.4135H94.1591V31.0546H86.6714Z" fill="#8528FF"/>
<path d="M91.3223 28.0429V29.4867H98.7981V28.0429H91.3223Z" fill="#8528FF"/>
<path d="M93.814 5.2821V13.4287L65.3379 13.3764V5.2821H93.814Z" fill="white"/>
<path d="M94.1592 22.908H65.6475V31.0546H94.1592V22.908Z" fill="white"/>
<path d="M94.1592 31.0546H84.7563V32.9949H94.1592V31.0546Z" fill="white"/>
<path d="M84.8755 31.0546H77.7148V32.9949H84.8755V31.0546Z" fill="white"/>
<path d="M89.6749 20.9678H87.7183V22.9081H89.6749V20.9678Z" fill="white"/>
<path d="M89.6749 13.4287H87.7183V15.369H89.6749V13.4287Z" fill="white"/>
<path d="M71.2497 13.4287H69.293V15.369H71.2497V13.4287Z" fill="white"/>
<path d="M71.2497 20.9678H69.293V22.9081H71.2497V20.9678Z" fill="white"/>
<path d="M77.7204 31.0546H75.7637V32.9949H77.7204V31.0546Z" fill="white"/>
<path d="M75.8113 31.0546H69.293V32.9949H75.8113V31.0546Z" fill="white"/>
<path d="M67.503 5.2821V8.41139H60.1758V48.674H73.1173V5.2821H67.503Z" fill="white"/>
<path d="M94.1413 8.41139V5.2821H89.6748V31.0546H94.1591V28.0233H98.7921V8.41139H94.1413Z" fill="white"/>
<path d="M90.3171 13.3307H86.4097V23.7507H90.3171V13.3307Z" fill="white"/>
<path d="M73.0637 13.0955H67.937V23.5155H73.0637V13.0955Z" fill="white"/>
<path d="M92.7915 32.9949H92.1729H84.8755V34.1185V34.4191V48.6674H97.7694V32.9949H92.7915Z" fill="white"/>
<path d="M42.3573 6.91541H37.9741V18.7466H42.3573V6.91541Z" fill="white"/>
<path d="M17.4911 6.91541H13.1079V18.7466H17.4911V6.91541Z" fill="white"/>
<path d="M41.1382 12.514H33.6802V24.3452H41.1382V12.514Z" fill="white"/>
<path d="M22.0586 12.514H14.6006V24.3452H22.0586V12.514Z" fill="white"/>
<path d="M20.5661 12.514H14.4165V24.3452H20.5661V12.514Z" fill="white"/>
<path d="M38.0634 18.0671H29.291V29.8983H38.0634V18.0671Z" fill="white"/>
<path d="M26.2517 18.0671H17.4912V29.8983H26.2517V18.0671Z" fill="white"/>
<path d="M35.4406 23.6985H29.291V35.5297H35.4406V23.6985Z" fill="white"/>
<path d="M26.2575 23.6985H20.1079V35.5297H26.2575V23.6985Z" fill="white"/>
<path d="M32.3659 23.986H23.1831V39.4037H32.3659V23.986Z" fill="white"/>
<path d="M48.8932 16.9174H39.7104V26.9258H48.8932V16.9174Z" fill="white"/>
<path d="M20.5661 13.592H11.3833V24.3453H20.5661V13.592Z" fill="white"/>
<path d="M49.9938 5.2821H41.1382V9.57425H49.9938V5.2821Z" fill="white"/>
<path d="M14.2438 5.2821H5.38818V9.57425H14.2438V5.2821Z" fill="white"/>
<path d="M53.473 8.72498H42.3633V52.4892H53.473V8.72498Z" fill="white"/>
<path d="M13.1083 8.72498H1.99854V52.4892H13.1083V8.72498Z" fill="white"/>
<path d="M53.473 48.6936H42.3633V52.6068H53.473V48.6936Z" fill="#8528FF"/>
<path d="M14.2438 5.2821H7.20801V9.57425H14.2438V5.2821Z" fill="white"/>
<path d="M13.1436 48.6936H1.98633V52.6068H13.1436V48.6936Z" fill="#8528FF"/>
<path d="M42.3575 24.3452H38.0635V27.0368H42.3575V24.3452Z" fill="#8528FF"/>
<path d="M17.4911 24.3452H13.1436V27.0368H17.4911V24.3452Z" fill="#8528FF"/>
<path d="M20.1081 29.8983H17.4912V32.5899H20.1081V29.8983Z" fill="#8528FF"/>
<path d="M38.0573 29.8983H35.4404V32.5899H38.0573V29.8983Z" fill="#8528FF"/>
<path d="M35.4405 35.5232H32.3657V38.2148H35.4405V35.5232Z" fill="#8528FF"/>
<path d="M23.1827 35.5232H20.1079V38.2148H23.1827V35.5232Z" fill="#8528FF"/>
<path d="M32.3659 39.4037H23.1831V42.0953H32.3659V39.4037Z" fill="#8528FF"/>
</svg>
